<svg width="245" height="43" viewBox="0 0 245 43" fill="none" xmlns="http://www.w3.org/2000/svg">
<path d="M0.604 34L14.332 3.2H21.372L35.144 34H27.664L16.4 6.808H19.216L7.908 34H0.604ZM7.468 27.4L9.36 21.988H25.2L27.136 27.4H7.468ZM50.8795 34.308C48.9728 34.308 47.2275 33.868 45.6435 32.988C44.0888 32.108 42.8422 30.788 41.9035 29.028C40.9942 27.2387 40.5395 24.98 40.5395 22.252C40.5395 19.4947 40.9795 17.236 41.8595 15.476C42.7688 13.716 44.0008 12.4107 45.5555 11.56C47.1102 10.68 48.8848 10.24 50.8795 10.24C53.1968 10.24 55.2355 10.7387 56.9955 11.736C58.7848 12.7333 60.1928 14.1267 61.2195 15.916C62.2755 17.7053 62.8035 19.8173 62.8035 22.252C62.8035 24.6867 62.2755 26.8133 61.2195 28.632C60.1928 30.4213 58.7848 31.8147 56.9955 32.812C55.2355 33.8093 53.1968 34.308 50.8795 34.308ZM37.8555 42.536V10.504H43.0915V16.048L42.9155 22.296L43.3555 28.544V42.536H37.8555ZM50.2635 29.6C51.5835 29.6 52.7568 29.3067 53.7835 28.72C54.8395 28.1333 55.6755 27.2827 56.2915 26.168C56.9075 25.0533 57.2155 23.748 57.2155 22.252C57.2155 20.7267 56.9075 19.4213 56.2915 18.336C55.6755 17.2213 54.8395 16.3707 53.7835 15.784C52.7568 15.1973 51.5835 14.904 50.2635 14.904C48.9435 14.904 47.7555 15.1973 46.6995 15.784C45.6435 16.3707 44.8075 17.2213 44.1915 18.336C43.5755 19.4213 43.2675 20.7267 43.2675 22.252C43.2675 23.748 43.5755 25.0533 44.1915 26.168C44.8075 27.2827 45.6435 28.1333 46.6995 28.72C47.7555 29.3067 48.9435 29.6 50.2635 29.6ZM80.6036 34.308C78.6969 34.308 76.9516 33.868 75.3676 32.988C73.8129 32.108 72.5662 30.788 71.6276 29.028C70.7182 27.2387 70.2636 24.98 70.2636 22.252C70.2636 19.4947 70.7036 17.236 71.5836 15.476C72.4929 13.716 73.7249 12.4107 75.2796 11.56C76.8342 10.68 78.6089 10.24 80.6036 10.24C82.9209 10.24 84.9596 10.7387 86.7196 11.736C88.5089 12.7333 89.9169 14.1267 90.9436 15.916C91.9996 17.7053 92.5276 19.8173 92.5276 22.252C92.5276 24.6867 91.9996 26.8133 90.9436 28.632C89.9169 30.4213 88.5089 31.8147 86.7196 32.812C84.9596 33.8093 82.9209 34.308 80.6036 34.308ZM67.5796 42.536V10.504H72.8156V16.048L72.6396 22.296L73.0796 28.544V42.536H67.5796ZM79.9876 29.6C81.3076 29.6 82.4809 29.3067 83.5076 28.72C84.5636 28.1333 85.3996 27.2827 86.0156 26.168C86.6316 25.0533 86.9396 23.748 86.9396 22.252C86.9396 20.7267 86.6316 19.4213 86.0156 18.336C85.3996 17.2213 84.5636 16.3707 83.5076 15.784C82.4809 15.1973 81.3076 14.904 79.9876 14.904C78.6676 14.904 77.4796 15.1973 76.4236 15.784C75.3676 16.3707 74.5316 17.2213 73.9156 18.336C73.2996 19.4213 72.9916 20.7267 72.9916 22.252C72.9916 23.748 73.2996 25.0533 73.9156 26.168C74.5316 27.2827 75.3676 28.1333 76.4236 28.72C77.4796 29.3067 78.6676 29.6 79.9876 29.6ZM126.96 10.24C128.837 10.24 130.494 10.6067 131.932 11.34C133.398 12.0733 134.542 13.2027 135.364 14.728C136.185 16.224 136.596 18.16 136.596 20.536V34H131.096V21.24C131.096 19.1573 130.641 17.6027 129.732 16.576C128.822 15.5493 127.517 15.036 125.816 15.036C124.613 15.036 123.542 15.3 122.604 15.828C121.694 16.356 120.976 17.1333 120.448 18.16C119.949 19.1867 119.7 20.492 119.7 22.076V34H114.2V21.24C114.2 19.1573 113.745 17.6027 112.836 16.576C111.926 15.5493 110.621 15.036 108.92 15.036C107.717 15.036 106.646 15.3 105.708 15.828C104.798 16.356 104.08 17.1333 103.552 18.16C103.053 19.1867 102.804 20.492 102.804 22.076V34H97.3036V10.504H102.54V16.752L101.616 14.904C102.408 13.3787 103.552 12.22 105.048 11.428C106.573 10.636 108.304 10.24 110.24 10.24C112.44 10.24 114.346 10.7827 115.96 11.868C117.602 12.9533 118.688 14.596 119.216 16.796L117.06 16.048C117.822 14.288 119.084 12.88 120.844 11.824C122.604 10.768 124.642 10.24 126.96 10.24ZM153.787 34.308C151.382 34.308 149.24 33.7947 147.363 32.768C145.486 31.712 144.004 30.2747 142.919 28.456C141.834 26.6373 141.291 24.5693 141.291 22.252C141.291 19.9053 141.834 17.8373 142.919 16.048C144.004 14.2293 145.486 12.8067 147.363 11.78C149.24 10.7533 151.382 10.24 153.787 10.24C156.222 10.24 158.378 10.7533 160.255 11.78C162.162 12.8067 163.643 14.2147 164.699 16.004C165.784 17.7933 166.327 19.876 166.327 22.252C166.327 24.5693 165.784 26.6373 164.699 28.456C163.643 30.2747 162.162 31.712 160.255 32.768C158.378 33.7947 156.222 34.308 153.787 34.308ZM153.787 29.6C155.136 29.6 156.339 29.3067 157.395 28.72C158.451 28.1333 159.272 27.2827 159.859 26.168C160.475 25.0533 160.783 23.748 160.783 22.252C160.783 20.7267 160.475 19.4213 159.859 18.336C159.272 17.2213 158.451 16.3707 157.395 15.784C156.339 15.1973 155.151 14.904 153.831 14.904C152.482 14.904 151.279 15.1973 150.223 15.784C149.196 16.3707 148.375 17.2213 147.759 18.336C147.143 19.4213 146.835 20.7267 146.835 22.252C146.835 23.748 147.143 25.0533 147.759 26.168C148.375 27.2827 149.196 28.1333 150.223 28.72C151.279 29.3067 152.467 29.6 153.787 29.6ZM181.09 34.308C178.832 34.308 176.793 33.8093 174.974 32.812C173.185 31.7853 171.777 30.3773 170.75 28.588C169.724 26.7987 169.21 24.6867 169.21 22.252C169.21 19.8173 169.724 17.7053 170.75 15.916C171.777 14.1267 173.185 12.7333 174.974 11.736C176.793 10.7387 178.832 10.24 181.09 10.24C183.056 10.24 184.816 10.68 186.37 11.56C187.925 12.4107 189.157 13.716 190.066 15.476C190.976 17.236 191.43 19.4947 191.43 22.252C191.43 24.98 190.99 27.2387 190.11 29.028C189.23 30.788 188.013 32.108 186.458 32.988C184.904 33.868 183.114 34.308 181.09 34.308ZM181.75 29.6C183.07 29.6 184.244 29.3067 185.27 28.72C186.326 28.1333 187.162 27.2827 187.778 26.168C188.424 25.0533 188.746 23.748 188.746 22.252C188.746 20.7267 188.424 19.4213 187.778 18.336C187.162 17.2213 186.326 16.3707 185.27 15.784C184.244 15.1973 183.07 14.904 181.75 14.904C180.43 14.904 179.242 15.1973 178.186 15.784C177.16 16.3707 176.324 17.2213 175.678 18.336C175.062 19.4213 174.754 20.7267 174.754 22.252C174.754 23.748 175.062 25.0533 175.678 26.168C176.324 27.2827 177.16 28.1333 178.186 28.72C179.242 29.3067 180.43 29.6 181.75 29.6ZM188.878 34V28.456L189.098 22.208L188.658 15.96V1.352H194.114V34H188.878ZM202.673 34.308C201.676 34.308 200.825 33.9707 200.121 33.296C199.417 32.592 199.065 31.712 199.065 30.656C199.065 29.5413 199.417 28.6613 200.121 28.016C200.825 27.3413 201.676 27.004 202.673 27.004C203.671 27.004 204.521 27.3413 205.225 28.016C205.929 28.6613 206.281 29.5413 206.281 30.656C206.281 31.712 205.929 32.592 205.225 33.296C204.521 33.9707 203.671 34.308 202.673 34.308ZM226.121 34V29.248L225.813 28.236V19.92C225.813 18.3067 225.329 17.06 224.361 16.18C223.393 15.2707 221.927 14.816 219.961 14.816C218.641 14.816 217.336 15.0213 216.045 15.432C214.784 15.8427 213.713 16.4147 212.833 17.148L210.677 13.144C211.939 12.176 213.435 11.4573 215.165 10.988C216.925 10.4893 218.744 10.24 220.621 10.24C224.024 10.24 226.649 11.0613 228.497 12.704C230.375 14.3173 231.313 16.8253 231.313 20.228V34H226.121ZM218.729 34.308C216.969 34.308 215.429 34.0147 214.109 33.428C212.789 32.812 211.763 31.976 211.029 30.92C210.325 29.8347 209.973 28.6173 209.973 27.268C209.973 25.948 210.281 24.76 210.897 23.704C211.543 22.648 212.584 21.812 214.021 21.196C215.459 20.58 217.365 20.272 219.741 20.272H226.561V23.924H220.137C218.26 23.924 216.999 24.232 216.353 24.848C215.708 25.4347 215.385 26.168 215.385 27.048C215.385 28.0453 215.781 28.8373 216.573 29.424C217.365 30.0107 218.465 30.304 219.873 30.304C221.223 30.304 222.425 29.996 223.481 29.38C224.567 28.764 225.344 27.8547 225.813 26.652L226.737 29.952C226.209 31.3307 225.256 32.4013 223.877 33.164C222.528 33.9267 220.812 34.308 218.729 34.308ZM237.932 34V10.504H243.432V34H237.932ZM240.704 6.632C239.677 6.632 238.826 6.30933 238.152 5.664C237.506 5.01867 237.184 4.24133 237.184 3.332C237.184 2.39333 237.506 1.616 238.152 0.999997C238.826 0.354665 239.677 0.0319993 240.704 0.0319993C241.73 0.0319993 242.566 0.339999 243.212 0.955998C243.886 1.54267 244.224 2.29067 244.224 3.2C244.224 4.168 243.901 4.98933 243.256 5.664C242.61 6.30933 241.76 6.632 240.704 6.632Z" fill="#1C1C1C"/>
</svg>
