<svg width="34" height="34" viewBox="0 0 37 37" fill="none" xmlns="http://www.w3.org/2000/svg">
<g id="Add new Window">
<path id="Vector" d="M12.8792 17.6194C12.3937 17.6194 12 18.0131 12 18.4987C12 18.9842 12.3937 19.3779 12.8792 19.3779V17.6194ZM18.7409 19.3779C19.2264 19.3779 19.6201 18.9842 19.6201 18.4987C19.6201 18.0131 19.2264 17.6194 18.7409 17.6194V19.3779ZM18.7409 17.6194C18.2553 17.6194 17.8616 18.0131 17.8616 18.4987C17.8616 18.9842 18.2553 19.3779 18.7409 19.3779V17.6194ZM24.6025 19.3779C25.0881 19.3779 25.4817 18.9842 25.4817 18.4987C25.4817 18.0131 25.0881 17.6194 24.6025 17.6194V19.3779ZM19.6201 18.4987C19.6201 18.0131 19.2264 17.6194 18.7409 17.6194C18.2553 17.6194 17.8616 18.0131 17.8616 18.4987H19.6201ZM17.8616 24.3603C17.8616 24.8459 18.2553 25.2395 18.7409 25.2395C19.2264 25.2395 19.6201 24.8459 19.6201 24.3603H17.8616ZM17.8616 18.4987C17.8616 18.9842 18.2553 19.3779 18.7409 19.3779C19.2264 19.3779 19.6201 18.9842 19.6201 18.4987H17.8616ZM19.6201 12.6371C19.6201 12.1515 19.2264 11.7578 18.7409 11.7578C18.2553 11.7578 17.8616 12.1515 17.8616 12.6371H19.6201ZM12.8792 19.3779H18.7409V17.6194H12.8792V19.3779ZM18.7409 19.3779H24.6025V17.6194H18.7409V19.3779ZM17.8616 18.4987C17.8616 18.4988 17.8616 18.5013 17.8616 18.5013C17.8616 18.5014 17.8616 18.5037 17.8616 18.5038C17.8616 18.5037 17.8616 18.5039 17.8616 18.5038C17.8616 18.5039 17.8616 18.5062 17.8616 18.5063C17.8616 18.5062 17.8616 18.5065 17.8616 18.5063C17.8616 18.5064 17.8616 18.5089 17.8616 18.5091C17.8616 18.5093 17.8616 18.5116 17.8616 18.5118C17.8616 18.5116 17.8616 18.512 17.8616 18.5118C17.8616 18.512 17.8616 18.514 17.8616 18.5143C17.8616 18.514 17.8616 18.5145 17.8616 18.5143C17.8616 18.5145 17.8616 18.5168 17.8616 18.5171C17.8616 18.5167 17.8616 18.5173 17.8616 18.5171C17.8616 18.5173 17.8616 18.5199 17.8616 18.5202C17.8616 18.5199 17.8616 18.5205 17.8616 18.5202C17.8616 18.5205 17.8616 18.5216 17.8616 18.5219C17.8616 18.5216 17.8616 18.5221 17.8616 18.5219C17.8616 18.5222 17.8616 18.5233 17.8616 18.5236C17.8616 18.5233 17.8616 18.524 17.8616 18.5236C17.8616 18.5239 17.8616 18.5252 17.8616 18.5255C17.8616 18.5252 17.8616 18.5258 17.8616 18.5255C17.8616 18.5259 17.8616 18.527 17.8616 18.5274C17.8616 18.527 17.8616 18.5277 17.8616 18.5274C17.8616 18.5277 17.8616 18.5292 17.8616 18.5295C17.8616 18.5292 17.8616 18.5299 17.8616 18.5295C17.8616 18.5299 17.8616 18.5313 17.8616 18.5316C17.8616 18.5313 17.8616 18.532 17.8616 18.5316C17.8616 18.532 17.8616 18.5334 17.8616 18.5338C17.8616 18.5335 17.8616 18.5342 17.8616 18.5338C17.8616 18.5343 17.8616 18.5357 17.8616 18.5361C17.8616 18.5356 17.8616 18.5365 17.8616 18.5361C17.8616 18.5364 17.8616 18.5381 17.8616 18.5385C17.8616 18.5381 17.8616 18.539 17.8616 18.5385C17.8616 18.5389 17.8616 18.5406 17.8616 18.541C17.8616 18.5405 17.8616 18.5415 17.8616 18.541C17.8616 18.5413 17.8616 18.5432 17.8616 18.5437C17.8616 18.5432 17.8616 18.5442 17.8616 18.5437C17.8616 18.5442 17.8616 18.5459 17.8616 18.5464C17.8616 18.5459 17.8616 18.5469 17.8616 18.5464C17.8616 18.5469 17.8616 18.5487 17.8616 18.5492C17.8616 18.5487 17.8616 18.5497 17.8616 18.5492C17.8616 18.5497 17.8616 18.5517 17.8616 18.5521C17.8616 18.5517 17.8616 18.5527 17.8616 18.5521C17.8616 18.5527 17.8616 18.5547 17.8616 18.5552C17.8616 18.5558 17.8616 18.5562 17.8616 18.5568C17.8616 18.5563 17.8616 18.5573 17.8616 18.5568C17.8616 18.5574 17.8616 18.5595 17.8616 18.56C17.8616 18.5606 17.8616 18.5612 17.8616 18.5617C17.8616 18.5622 17.8616 18.5628 17.8616 18.5634C17.8616 18.564 17.8616 18.5646 17.8616 18.5651C17.8616 18.5656 17.8616 18.5662 17.8616 18.5668C17.8616 18.5674 17.8616 18.5681 17.8616 18.5687C17.8616 18.5692 17.8616 18.5698 17.8616 18.5704C17.8616 18.571 17.8616 18.5716 17.8616 18.5723C17.8616 18.5729 17.8616 18.5735 17.8616 18.5742C17.8616 18.5748 17.8616 18.5755 17.8616 18.576C17.8616 18.5766 17.8616 18.5773 17.8616 18.5779C17.8616 18.5786 17.8616 18.5793 17.8616 18.5799C17.8616 18.5806 17.8616 18.5813 17.8616 18.5819C17.8616 18.5826 17.8616 18.5833 17.8616 18.584C17.8616 18.5846 17.8616 18.5853 17.8616 18.586C17.8616 18.5867 17.8616 18.5874 17.8616 18.5881C17.8616 18.5888 17.8616 18.5895 17.8616 18.5902C17.8616 18.5909 17.8616 18.5918 17.8616 18.5925C17.8616 18.5932 17.8616 18.5939 17.8616 18.5946C17.8616 18.5954 17.8616 18.5961 17.8616 18.5968C17.8616 18.5976 17.8616 18.5983 17.8616 18.5991C17.8616 18.5998 17.8616 18.6007 17.8616 18.6014C17.8616 18.6022 17.8616 18.603 17.8616 18.6037C17.8616 18.6045 17.8616 18.6054 17.8616 18.6062C17.8616 18.6069 17.8616 18.6077 17.8616 18.6085C17.8616 18.6093 17.8616 18.6102 17.8616 18.611C17.8616 18.6118 17.8616 18.6126 17.8616 18.6134C17.8616 18.6143 17.8616 18.6151 17.8616 18.6159C17.8616 18.6168 17.8616 18.6177 17.8616 18.6185C17.8616 18.6194 17.8616 18.6202 17.8616 18.6211C17.8616 18.622 17.8616 18.6228 17.8616 18.6238C17.8616 18.6246 17.8616 18.6255 17.8616 18.6263C17.8616 18.6273 17.8616 18.6282 17.8616 18.629C17.8616 18.63 17.8616 18.6309 17.8616 18.6318C17.8616 18.6328 17.8616 18.6336 17.8616 18.6345C17.8616 18.6355 17.8616 18.6364 17.8616 18.6374C17.8616 18.6383 17.8616 18.6393 17.8616 18.6403C17.8616 18.6412 17.8616 18.6422 17.8616 18.6431C17.8616 18.6442 17.8616 18.6451 17.8616 18.646C17.8616 18.6471 17.8616 18.648 17.8616 18.6491C17.8616 18.65 17.8616 18.6511 17.8616 18.652C17.8616 18.6531 17.8616 18.6541 17.8616 18.6551C17.8616 18.6561 17.8616 18.6572 17.8616 18.6582C17.8616 18.6592 17.8616 18.6602 17.8616 18.6613C17.8616 18.6623 17.8616 18.6634 17.8616 18.6644C17.8616 18.6655 17.8616 18.6665 17.8616 18.6677C17.8616 18.6688 17.8616 18.6698 17.8616 18.6709C17.8616 18.6721 17.8616 18.6731 17.8616 18.6742C17.8616 18.6753 17.8616 18.6764 17.8616 18.6776C17.8616 18.6786 17.8616 18.6798 17.8616 18.681C17.8616 18.682 17.8616 18.6832 17.8616 18.6844C17.8616 18.6855 17.8616 18.6866 17.8616 18.6878C17.8616 18.6889 17.8616 18.6901 17.8616 18.6913C17.8616 18.6925 17.8616 18.6936 17.8616 18.6948C17.8616 18.6961 17.8616 18.6973 17.8616 18.6984C17.8616 18.6996 17.8616 18.7009 17.8616 18.7021C17.8616 18.7032 17.8616 18.7045 17.8616 18.7057C17.8616 18.707 17.8616 18.7082 17.8616 18.7095C17.8616 18.7107 17.8616 18.7119 17.8616 18.7132C17.8616 18.7145 17.8616 18.7158 17.8616 18.7171C17.8616 18.7184 17.8616 18.7197 17.8616 18.7209C17.8616 18.7222 17.8616 18.7235 17.8616 18.7248C17.8616 18.7261 17.8616 18.7274 17.8616 18.7287C17.8616 18.7301 17.8616 18.7314 17.8616 18.7328C17.8616 18.7341 17.8616 18.7354 17.8616 18.7368C17.8616 18.7381 17.8616 18.7395 17.8616 18.7409C17.8616 18.7422 17.8616 18.7436 17.8616 18.745C17.8616 18.7464 17.8616 18.7478 17.8616 18.7492C17.8616 18.7506 17.8616 18.752 17.8616 18.7534C17.8616 18.7548 17.8616 18.7562 17.8616 18.7576C17.8616 18.759 17.8616 18.7605 17.8616 18.762C17.8616 18.7634 17.8616 18.7649 17.8616 18.7663C17.8616 18.7678 17.8616 18.7692 17.8616 18.7708C17.8616 18.7722 17.8616 18.7737 17.8616 18.7752C17.8616 18.7766 17.8616 18.7782 17.8616 18.7797C17.8616 18.7812 17.8616 18.7827 17.8616 18.7842C17.8616 18.7858 17.8616 18.7873 17.8616 18.7888C17.8616 18.7903 17.8616 18.792 17.8616 18.7935C17.8616 18.795 17.8616 18.7967 17.8616 18.7982C17.8616 18.7998 17.8616 18.8014 17.8616 18.803C17.8616 18.8045 17.8616 18.8062 17.8616 18.8078C17.8616 18.8093 17.8616 18.811 17.8616 18.8126C17.8616 18.8143 17.8616 18.8159 17.8616 18.8175C17.8616 18.8192 17.8616 18.8208 17.8616 18.8225C17.8616 18.8241 17.8616 18.8259 17.8616 18.8275C17.8616 18.8292 17.8616 18.8309 17.8616 18.8325C17.8616 18.8343 17.8616 18.8359 17.8616 18.8377C17.8616 18.8393 17.8616 18.8411 17.8616 18.8429C17.8616 18.8446 17.8616 18.8463 17.8616 18.848C17.8616 18.8498 17.8616 18.8515 17.8616 18.8533C17.8616 18.8551 17.8616 18.8568 17.8616 18.8587C17.8616 18.8605 17.8616 18.8622 17.8616 18.864C17.8616 18.8658 17.8616 18.8676 17.8616 18.8695C17.8616 18.8712 17.8616 18.8731 17.8616 18.8749C17.8616 18.8767 17.8616 18.8786 17.8616 18.8805C17.8616 18.8823 17.8616 18.8841 17.8616 18.886C17.8616 18.8879 17.8616 18.8898 17.8616 18.8916C17.8616 18.8935 17.8616 18.8955 17.8616 18.8974C17.8616 18.8993 17.8616 18.9012 17.8616 18.9031C17.8616 18.905 17.8616 18.907 17.8616 18.909C17.8616 18.9109 17.8616 18.9129 17.8616 18.9148C17.8616 18.9167 17.8616 18.9187 17.8616 18.9207C17.8616 18.9227 17.8616 18.9247 17.8616 18.9267C17.8616 18.9287 17.8616 18.9307 17.8616 18.9327C17.8616 18.9348 17.8616 18.9368 17.8616 18.9388C17.8616 18.9409 17.8616 18.9429 17.8616 18.945C17.8616 18.947 17.8616 18.9491 17.8616 18.9511C17.8616 18.9532 17.8616 18.9553 17.8616 18.9574C17.8616 18.9595 17.8616 18.9616 17.8616 18.9637C17.8616 18.9658 17.8616 18.968 17.8616 18.9701C17.8616 18.9722 17.8616 18.9743 17.8616 18.9765C17.8616 18.9786 17.8616 18.9808 17.8616 18.983C17.8616 18.9852 17.8616 18.9873 17.8616 18.9895C17.8616 18.9918 17.8616 18.9939 17.8616 18.9961C17.8616 18.9983 17.8616 19.0005 17.8616 19.0028C17.8616 19.005 17.8616 19.0072 17.8616 19.0096C17.8616 19.0118 17.8616 19.014 17.8616 19.0163C17.8616 19.0186 17.8616 19.0208 17.8616 19.0232C17.8616 19.0254 17.8616 19.0277 17.8616 19.0301C17.8616 19.0323 17.8616 19.0347 17.8616 19.037C17.8616 19.0393 17.8616 19.0417 17.8616 19.044C17.8616 19.0464 17.8616 19.0487 17.8616 19.0511C17.8616 19.0534 17.8616 19.0559 17.8616 19.0582C17.8616 19.0607 17.8616 19.063 17.8616 19.0655C17.8616 19.0678 17.8616 19.0703 17.8616 19.0728C17.8616 19.0751 17.8616 19.0776 17.8616 19.08C17.8616 19.0825 17.8616 19.085 17.8616 19.0874C17.8616 19.0899 17.8616 19.0923 17.8616 19.0949C17.8616 19.0974 17.8616 19.0998 17.8616 19.1024C17.8616 19.1049 17.8616 19.1075 17.8616 19.1099C17.8616 19.1125 17.8616 19.1151 17.8616 19.1177C17.8616 19.1201 17.8616 19.1227 17.8616 19.1253C17.8616 19.1279 17.8616 19.1304 17.8616 19.1331C17.8616 19.1357 17.8616 19.1383 17.8616 19.1409C17.8616 19.1436 17.8616 19.1461 17.8616 19.1488C17.8616 19.1514 17.8616 19.1541 17.8616 19.1568C17.8616 19.1594 17.8616 19.1621 17.8616 19.1648C17.8616 19.1675 17.8616 19.1702 17.8616 19.1729C17.8616 19.1756 17.8616 19.1783 17.8616 19.1811C17.8616 19.1838 17.8616 19.1865 17.8616 19.1893C17.8616 19.192 17.8616 19.1948 17.8616 19.1976C17.8616 19.2003 17.8616 19.2031 17.8616 19.2059C17.8616 19.2087 17.8616 19.2116 17.8616 19.2144C17.8616 19.2172 17.8616 19.22 17.8616 19.2228C17.8616 19.2256 17.8616 19.2286 17.8616 19.2314C17.8616 19.2342 17.8616 19.2371 17.8616 19.24C17.8616 19.2429 17.8616 19.2458 17.8616 19.2487C17.8616 19.2515 17.8616 19.2545 17.8616 19.2574C17.8616 19.2603 17.8616 19.2633 17.8616 19.2663C17.8616 19.2692 17.8616 19.2722 17.8616 19.2751C17.8616 19.2781 17.8616 19.2811 17.8616 19.2841C17.8616 19.2871 17.8616 19.2901 17.8616 19.2932C17.8616 19.2962 17.8616 19.2991 17.8616 19.3022C17.8616 19.3052 17.8616 19.3083 17.8616 19.3114C17.8616 19.3145 17.8616 19.3175 17.8616 19.3206C17.8616 19.3238 17.8616 19.3268 17.8616 19.33C17.8616 19.333 17.8616 19.3362 17.8616 19.3393C17.8616 19.3425 17.8616 19.3456 17.8616 19.3487C17.8616 19.3519 17.8616 19.3551 17.8616 19.3582C17.8616 19.3615 17.8616 19.3647 17.8616 19.3678C17.8616 19.3711 17.8616 19.3743 17.8616 19.3776C17.8616 19.3807 17.8616 19.384 17.8616 19.3873C17.8616 19.3905 17.8616 19.3937 17.8616 19.397C17.8616 19.4003 17.8616 19.4036 17.8616 19.4069C17.8616 19.4103 17.8616 19.4136 17.8616 19.4168C17.8616 19.4202 17.8616 19.4235 17.8616 19.4269C17.8616 19.4302 17.8616 19.4336 17.8616 19.437C17.8616 19.4404 17.8616 19.4437 17.8616 19.4471C17.8616 19.4505 17.8616 19.454 17.8616 19.4574C17.8616 19.4608 17.8616 19.4642 17.8616 19.4677C17.8616 19.4711 17.8616 19.4746 17.8616 19.478C17.8616 19.4815 17.8616 19.4851 17.8616 19.4885C17.8616 19.492 17.8616 19.4955 17.8616 19.499C17.8616 19.5025 17.8616 19.506 17.8616 19.5097C17.8616 19.5132 17.8616 19.5167 17.8616 19.5204C17.8616 19.5239 17.8616 19.5275 17.8616 19.5311C17.8616 19.5347 17.8616 19.5383 17.8616 19.5419C17.8616 19.5456 17.8616 19.5492 17.8616 19.5528C17.8616 19.5565 17.8616 19.5601 17.8616 19.5638C17.8616 19.5675 17.8616 19.5711 17.8616 19.5749C17.8616 19.5785 17.8616 19.5822 17.8616 19.586C17.8616 19.5898 17.8616 19.5935 17.8616 19.5973C17.8616 19.6009 17.8616 19.6048 17.8616 19.6085C17.8616 19.6123 17.8616 19.616 17.8616 19.6199C17.8616 19.6236 17.8616 19.6275 17.8616 19.6313C17.8616 19.6351 17.8616 19.639 17.8616 19.6429C17.8616 19.6466 17.8616 19.6505 17.8616 19.6543C17.8616 19.6583 17.8616 19.6622 17.8616 19.6661C17.8616 19.6699 17.8616 19.6739 17.8616 19.6778C17.8616 19.6818 17.8616 19.6856 17.8616 19.6896C17.8616 19.6936 17.8616 19.6976 17.8616 19.7016C17.8616 19.7056 17.8616 19.7096 17.8616 19.7135C17.8616 19.7175 17.8616 19.7216 17.8616 19.7256C17.8616 19.7296 17.8616 19.7337 17.8616 19.7378C17.8616 19.7418 17.8616 19.7459 17.8616 19.75C17.8616 19.7541 17.8616 19.7582 17.8616 19.7623C17.8616 19.7664 17.8616 19.7705 17.8616 19.7747C17.8616 19.7788 17.8616 19.783 17.8616 19.7872C17.8616 19.7914 17.8616 19.7955 17.8616 19.7997C17.8616 19.8039 17.8616 19.8082 17.8616 19.8124C17.8616 19.8166 17.8616 19.8208 17.8616 19.825C17.8616 19.8293 17.8616 19.8336 17.8616 19.8378C17.8616 19.8422 17.8616 19.8464 17.8616 19.8507C17.8616 19.8551 17.8616 19.8594 17.8616 19.8637C17.8616 19.8681 17.8616 19.8724 17.8616 19.8767C17.8616 19.8811 17.8616 19.8854 17.8616 19.8899C17.8616 19.8942 17.8616 19.8987 17.8616 19.9031C17.8616 19.9075 17.8616 19.9119 17.8616 19.9164C17.8616 19.9208 17.8616 19.9253 17.8616 19.9297C17.8616 19.9342 17.8616 19.9386 17.8616 19.9432C17.8616 19.9477 17.8616 19.9522 17.8616 19.9567C17.8616 19.9613 17.8616 19.9658 17.8616 19.9704C17.8616 19.9749 17.8616 19.9794 17.8616 19.9841C17.8616 19.9887 17.8616 19.9933 17.8616 19.9978C17.8616 20.0025 17.8616 20.0071 17.8616 20.0118C17.8616 20.0164 17.8616 20.0211 17.8616 20.0257C17.8616 20.0304 17.8616 20.0351 17.8616 20.0398C17.8616 20.0445 17.8616 20.0492 17.8616 20.0539C17.8616 20.0587 17.8616 20.0634 17.8616 20.0682C17.8616 20.0729 17.8616 20.0777 17.8616 20.0825C17.8616 20.0872 17.8616 20.092 17.8616 20.0968C17.8616 20.1017 17.8616 20.1065 17.8616 20.1113C17.8616 20.1161 17.8616 20.121 17.8616 20.1259C17.8616 20.1308 17.8616 20.1357 17.8616 20.1405C17.8616 20.1454 17.8616 20.1504 17.8616 20.1553C17.8616 20.1602 17.8616 20.1651 17.8616 20.1702C17.8616 20.1751 17.8616 20.18 17.8616 20.1851C17.8616 20.1901 17.8616 20.195 17.8616 20.2001C17.8616 20.2051 17.8616 20.2101 17.8616 20.2152C17.8616 20.2202 17.8616 20.2253 17.8616 20.2303C17.8616 20.2355 17.8616 20.2405 17.8616 20.2457C17.8616 20.2507 17.8616 20.2559 17.8616 20.261C17.8616 20.2662 17.8616 20.2713 17.8616 20.2765C17.8616 20.2817 17.8616 20.2868 17.8616 20.292C17.8616 20.2973 17.8616 20.3024 17.8616 20.3077C17.8616 20.3128 17.8616 20.3181 17.8616 20.3234C17.8616 20.3287 17.8616 20.3339 17.8616 20.3392C17.8616 20.3445 17.8616 20.3498 17.8616 20.3552C17.8616 20.3604 17.8616 20.3658 17.8616 20.3711C17.8616 20.3765 17.8616 20.3819 17.8616 20.3872C17.8616 20.3926 17.8616 20.398 17.8616 20.4035C17.8616 20.4089 17.8616 20.4142 17.8616 20.4196C17.8616 20.4252 17.8616 20.4305 17.8616 20.4361C17.8616 20.4416 17.8616 20.4471 17.8616 20.4526C17.8616 20.458 17.8616 20.4636 17.8616 20.4691C17.8616 20.4746 17.8616 20.4801 17.8616 20.4858C17.8616 20.4913 17.8616 20.4969 17.8616 20.5025C17.8616 20.508 17.8616 20.5137 17.8616 20.5193C17.8616 20.5249 17.8616 20.5305 17.8616 20.5363C17.8616 20.5419 17.8616 20.5475 17.8616 20.5533C17.8616 20.559 17.8616 20.5647 17.8616 20.5704C17.8616 20.5761 17.8616 20.5819 17.8616 20.5876C17.8616 20.5934 17.8616 20.5991 17.8616 20.605C17.8616 20.6107 17.8616 20.6165 17.8616 20.6223C17.8616 20.6282 17.8616 20.6339 17.8616 20.6398C17.8616 20.6457 17.8616 20.6515 17.8616 20.6574C17.8616 20.6634 17.8616 20.6692 17.8616 20.6751C17.8616 20.6811 17.8616 20.6869 17.8616 20.6929C17.8616 20.6989 17.8616 20.7049 17.8616 20.7108C17.8616 20.7168 17.8616 20.7228 17.8616 20.7288C17.8616 20.7348 17.8616 20.7409 17.8616 20.7468C17.8616 20.7529 17.8616 20.759 17.8616 20.765C17.8616 20.7711 17.8616 20.7772 17.8616 20.7833C17.8616 20.7894 17.8616 20.7956 17.8616 20.8017C17.8616 20.8078 17.8616 20.814 17.8616 20.8202C17.8616 20.8263 17.8616 20.8325 17.8616 20.8387C17.8616 20.845 17.8616 20.8512 17.8616 20.8574C17.8616 20.8637 17.8616 20.8699 17.8616 20.8761C17.8616 20.8825 17.8616 20.8888 17.8616 20.895C17.8616 20.9013 17.8616 20.9077 17.8616 20.914C17.8616 20.9203 17.8616 20.9268 17.8616 20.9331C17.8616 20.9394 17.8616 20.9459 17.8616 20.9522C17.8616 20.9587 17.8616 20.9651 17.8616 20.9716C17.8616 20.978 17.8616 20.9845 17.8616 20.9909C17.8616 20.9974 17.8616 21.0039 17.8616 21.0104C17.8616 21.0169 17.8616 21.0234 17.8616 21.03C17.8616 21.0365 17.8616 21.0431 17.8616 21.0496C17.8616 21.0562 17.8616 21.0628 17.8616 21.0695C17.8616 21.076 17.8616 21.0826 17.8616 21.0893C17.8616 21.096 17.8616 21.1026 17.8616 21.1092C17.8616 21.1159 17.8616 21.1227 17.8616 21.1294C17.8616 21.136 17.8616 21.1427 17.8616 21.1495C17.8616 21.1562 17.8616 21.163 17.8616 21.1698C17.8616 21.1766 17.8616 21.1834 17.8616 21.1902C17.8616 21.197 17.8616 21.2038 17.8616 21.2107C17.8616 21.2175 17.8616 21.2244 17.8616 21.2312C17.8616 21.2382 17.8616 21.2451 17.8616 21.252C17.8616 21.2589 17.8616 21.2658 17.8616 21.2727C17.8616 21.2798 17.8616 21.2867 17.8616 21.2937C17.8616 21.3006 17.8616 21.3077 17.8616 21.3147C17.8616 21.3217 17.8616 21.3288 17.8616 21.3358C17.8616 21.3428 17.8616 21.35 17.8616 21.357C17.8616 21.3642 17.8616 21.3712 17.8616 21.3784C17.8616 21.3855 17.8616 21.3927 17.8616 21.3998C17.8616 21.407 17.8616 21.4142 17.8616 21.4214C17.8616 21.4285 17.8616 21.4358 17.8616 21.4431C17.8616 21.4502 17.8616 21.4575 17.8616 21.4648C17.8616 21.472 17.8616 21.4793 17.8616 21.4867C17.8616 21.494 17.8616 21.5012 17.8616 21.5086C17.8616 21.516 17.8616 21.5233 17.8616 21.5307C17.8616 21.538 17.8616 21.5454 17.8616 21.5529C17.8616 21.5603 17.8616 21.5677 17.8616 21.5752C17.8616 21.5826 17.8616 21.5901 17.8616 21.5976C17.8616 21.6051 17.8616 21.6126 17.8616 21.6201C17.8616 21.6276 17.8616 21.6351 17.8616 21.6427C17.8616 21.6502 17.8616 21.6578 17.8616 21.6655C17.8616 21.673 17.8616 21.6806 17.8616 21.6883C17.8616 21.6959 17.8616 21.7036 17.8616 21.7112C17.8616 21.7189 17.8616 21.7265 17.8616 21.7343C17.8616 21.742 17.8616 21.7498 17.8616 21.7575C17.8616 21.7652 17.8616 21.773 17.8616 21.7807C17.8616 21.7884 17.8616 21.7963 17.8616 21.8042C17.8616 21.8119 17.8616 21.8197 17.8616 21.8276C17.8616 21.8355 17.8616 21.8433 17.8616 21.8512C17.8616 21.8591 17.8616 21.867 17.8616 21.875C17.8616 21.8828 17.8616 21.8908 17.8616 21.8988C17.8616 21.9067 17.8616 21.9147 17.8616 21.9227C17.8616 21.9308 17.8616 21.9387 17.8616 21.9468C17.8616 21.9548 17.8616 21.9629 17.8616 21.971C17.8616 21.9791 17.8616 21.9872 17.8616 21.9952C17.8616 22.0033 17.8616 22.0114 17.8616 22.0196C17.8616 22.0277 17.8616 22.0359 17.8616 22.0441C17.8616 22.0523 17.8616 22.0605 17.8616 22.0687C17.8616 22.077 17.8616 22.0852 17.8616 22.0935C17.8616 22.1017 17.8616 22.11 17.8616 22.1183C17.8616 22.1267 17.8616 22.135 17.8616 22.1433C17.8616 22.1516 17.8616 22.16 17.8616 22.1684C17.8616 22.1767 17.8616 22.1852 17.8616 22.1936C17.8616 22.2019 17.8616 22.2104 17.8616 22.2189C17.8616 22.2274 17.8616 22.2358 17.8616 22.2442C17.8616 22.2528 17.8616 22.2612 17.8616 22.2698C17.8616 22.2784 17.8616 22.2869 17.8616 22.2955C17.8616 22.304 17.8616 22.3126 17.8616 22.3213C17.8616 22.3298 17.8616 22.3385 17.8616 22.3472C17.8616 22.3557 17.8616 22.3644 17.8616 22.3731C17.8616 22.3819 17.8616 22.3905 17.8616 22.3992C17.8616 22.408 17.8616 22.4167 17.8616 22.4255C17.8616 22.4343 17.8616 22.4431 17.8616 22.4519C17.8616 22.4607 17.8616 22.4694 17.8616 22.4784C17.8616 22.4872 17.8616 22.4961 17.8616 22.505C17.8616 22.5138 17.8616 22.5227 17.8616 22.5316C17.8616 22.5405 17.8616 22.5495 17.8616 22.5584C17.8616 22.5675 17.8616 22.5764 17.8616 22.5854C17.8616 22.5944 17.8616 22.6034 17.8616 22.6125C17.8616 22.6215 17.8616 22.6305 17.8616 22.6397C17.8616 22.6487 17.8616 22.6578 17.8616 22.667C17.8616 22.676 17.8616 22.6852 17.8616 22.6944C17.8616 22.7036 17.8616 22.7127 17.8616 22.722C17.8616 22.7311 17.8616 22.7404 17.8616 22.7495C17.8616 22.7588 17.8616 22.768 17.8616 22.7773C17.8616 22.7867 17.8616 22.7959 17.8616 22.8053C17.8616 22.8146 17.8616 22.824 17.8616 22.8333C17.8616 22.8426 17.8616 22.852 17.8616 22.8615C17.8616 22.8709 17.8616 22.8802 17.8616 22.8897C17.8616 22.8991 17.8616 22.9086 17.8616 22.9181C17.8616 22.9276 17.8616 22.9371 17.8616 22.9466C17.8616 22.9561 17.8616 22.9657 17.8616 22.9752C17.8616 22.9848 17.8616 22.9944 17.8616 23.004C17.8616 23.0136 17.8616 23.0233 17.8616 23.0329C17.8616 23.0425 17.8616 23.0522 17.8616 23.0618C17.8616 23.0716 17.8616 23.0813 17.8616 23.091C17.8616 23.1007 17.8616 23.1105 17.8616 23.1202C17.8616 23.1301 17.8616 23.1398 17.8616 23.1496C17.8616 23.1595 17.8616 23.1693 17.8616 23.1792C17.8616 23.189 17.8616 23.1989 17.8616 23.2087C17.8616 23.2187 17.8616 23.2285 17.8616 23.2385C17.8616 23.2485 17.8616 23.2584 17.8616 23.2684C17.8616 23.2784 17.8616 23.2883 17.8616 23.2984C17.8616 23.3084 17.8616 23.3184 17.8616 23.3285C17.8616 23.3386 17.8616 23.3487 17.8616 23.3588C17.8616 23.3689 17.8616 23.3789 17.8616 23.3891C17.8616 23.3992 17.8616 23.4094 17.8616 23.4196C17.8616 23.4298 17.8616 23.44 17.8616 23.4502C17.8616 23.4605 17.8616 23.4707 17.8616 23.481C17.8616 23.4912 17.8616 23.5016 17.8616 23.5119C17.8616 23.5222 17.8616 23.5325 17.8616 23.5429C17.8616 23.5533 17.8616 23.5636 17.8616 23.574C17.8616 23.5844 17.8616 23.5949 17.8616 23.6053C17.8616 23.6157 17.8616 23.6262 17.8616 23.6367C17.8616 23.6472 17.8616 23.6577 17.8616 23.6683C17.8616 23.6787 17.8616 23.6893 17.8616 23.6999C17.8616 23.7105 17.8616 23.721 17.8616 23.7317C17.8616 23.7422 17.8616 23.7529 17.8616 23.7636C17.8616 23.7742 17.8616 23.7849 17.8616 23.7956C17.8616 23.8062 17.8616 23.817 17.8616 23.8277C17.8616 23.8385 17.8616 23.8493 17.8616 23.8601C17.8616 23.8708 17.8616 23.8816 17.8616 23.8925C17.8616 23.9033 17.8616 23.9142 17.8616 23.925C17.8616 23.9359 17.8616 23.9468 17.8616 23.9577C17.8616 23.9686 17.8616 23.9796 17.8616 23.9905C17.8616 24.0016 17.8616 24.0125 17.8616 24.0235C17.8616 24.0345 17.8616 24.0455 17.8616 24.0565C17.8616 24.0677 17.8616 24.0787 17.8616 24.0898C17.8616 24.1009 17.8616 24.112 17.8616 24.1231C17.8616 24.1343 17.8616 24.1454 17.8616 24.1567C17.8616 24.1678 17.8616 24.179 17.8616 24.1902C17.8616 24.2014 17.8616 24.2127 17.8616 24.2239C17.8616 24.2352 17.8616 24.2466 17.8616 24.2578C17.8616 24.2692 17.8616 24.2805 17.8616 24.2918C17.8616 24.3032 17.8616 24.3146 17.8616 24.3261C17.8616 24.3374 17.8616 24.3488 17.8616 24.3603H19.6201C19.6201 24.3488 19.6201 24.3374 19.6201 24.3261C19.6201 24.3146 19.6201 24.3032 19.6201 24.2918C19.6201 24.2805 19.6201 24.2692 19.6201 24.2578C19.6201 24.2466 19.6201 24.2352 19.6201 24.2239C19.6201 24.2127 19.6201 24.2014 19.6201 24.1902C19.6201 24.179 19.6201 24.1678 19.6201 24.1567C19.6201 24.1454 19.6201 24.1343 19.6201 24.1231C19.6201 24.112 19.6201 24.1009 19.6201 24.0898C19.6201 24.0787 19.6201 24.0677 19.6201 24.0565C19.6201 24.0455 19.6201 24.0345 19.6201 24.0235C19.6201 24.0125 19.6201 24.0016 19.6201 23.9905C19.6201 23.9796 19.6201 23.9686 19.6201 23.9577C19.6201 23.9468 19.6201 23.9359 19.6201 23.925C19.6201 23.9142 19.6201 23.9033 19.6201 23.8925C19.6201 23.8816 19.6201 23.8708 19.6201 23.8601C19.6201 23.8493 19.6201 23.8385 19.6201 23.8277C19.6201 23.817 19.6201 23.8062 19.6201 23.7956C19.6201 23.7849 19.6201 23.7742 19.6201 23.7636C19.6201 23.7529 19.6201 23.7422 19.6201 23.7317C19.6201 23.721 19.6201 23.7105 19.6201 23.6999C19.6201 23.6893 19.6201 23.6787 19.6201 23.6683C19.6201 23.6577 19.6201 23.6472 19.6201 23.6367C19.6201 23.6262 19.6201 23.6157 19.6201 23.6053C19.6201 23.5949 19.6201 23.5844 19.6201 23.574C19.6201 23.5636 19.6201 23.5533 19.6201 23.5429C19.6201 23.5325 19.6201 23.5222 19.6201 23.5119C19.6201 23.5016 19.6201 23.4912 19.6201 23.481C19.6201 23.4707 19.6201 23.4605 19.6201 23.4502C19.6201 23.44 19.6201 23.4298 19.6201 23.4196C19.6201 23.4094 19.6201 23.3992 19.6201 23.3891C19.6201 23.3789 19.6201 23.3689 19.6201 23.3588C19.6201 23.3487 19.6201 23.3386 19.6201 23.3285C19.6201 23.3184 19.6201 23.3084 19.6201 23.2984C19.6201 23.2883 19.6201 23.2784 19.6201 23.2684C19.6201 23.2584 19.6201 23.2485 19.6201 23.2385C19.6201 23.2285 19.6201 23.2187 19.6201 23.2087C19.6201 23.1989 19.6201 23.189 19.6201 23.1792C19.6201 23.1693 19.6201 23.1595 19.6201 23.1496C19.6201 23.1398 19.6201 23.1301 19.6201 23.1202C19.6201 23.1105 19.6201 23.1007 19.6201 23.091C19.6201 23.0813 19.6201 23.0716 19.6201 23.0618C19.6201 23.0522 19.6201 23.0425 19.6201 23.0329C19.6201 23.0233 19.6201 23.0136 19.6201 23.004C19.6201 22.9944 19.6201 22.9848 19.6201 22.9752C19.6201 22.9657 19.6201 22.9561 19.6201 22.9466C19.6201 22.9371 19.6201 22.9276 19.6201 22.9181C19.6201 22.9086 19.6201 22.8991 19.6201 22.8897C19.6201 22.8802 19.6201 22.8709 19.6201 22.8615C19.6201 22.852 19.6201 22.8426 19.6201 22.8333C19.6201 22.824 19.6201 22.8146 19.6201 22.8053C19.6201 22.7959 19.6201 22.7867 19.6201 22.7773C19.6201 22.768 19.6201 22.7588 19.6201 22.7495C19.6201 22.7404 19.6201 22.7311 19.6201 22.722C19.6201 22.7127 19.6201 22.7036 19.6201 22.6944C19.6201 22.6852 19.6201 22.676 19.6201 22.667C19.6201 22.6578 19.6201 22.6487 19.6201 22.6397C19.6201 22.6305 19.6201 22.6215 19.6201 22.6125C19.6201 22.6034 19.6201 22.5944 19.6201 22.5854C19.6201 22.5764 19.6201 22.5675 19.6201 22.5584C19.6201 22.5495 19.6201 22.5405 19.6201 22.5316C19.6201 22.5227 19.6201 22.5138 19.6201 22.505C19.6201 22.4961 19.6201 22.4872 19.6201 22.4784C19.6201 22.4694 19.6201 22.4607 19.6201 22.4519C19.6201 22.4431 19.6201 22.4343 19.6201 22.4255C19.6201 22.4167 19.6201 22.408 19.6201 22.3992C19.6201 22.3905 19.6201 22.3819 19.6201 22.3731C19.6201 22.3644 19.6201 22.3557 19.6201 22.3472C19.6201 22.3385 19.6201 22.3298 19.6201 22.3213C19.6201 22.3126 19.6201 22.304 19.6201 22.2955C19.6201 22.2869 19.6201 22.2784 19.6201 22.2698C19.6201 22.2612 19.6201 22.2528 19.6201 22.2442C19.6201 22.2358 19.6201 22.2274 19.6201 22.2189C19.6201 22.2104 19.6201 22.2019 19.6201 22.1936C19.6201 22.1852 19.6201 22.1767 19.6201 22.1684C19.6201 22.16 19.6201 22.1516 19.6201 22.1433C19.6201 22.135 19.6201 22.1267 19.6201 22.1183C19.6201 22.11 19.6201 22.1017 19.6201 22.0935C19.6201 22.0852 19.6201 22.077 19.6201 22.0687C19.6201 22.0605 19.6201 22.0523 19.6201 22.0441C19.6201 22.0359 19.6201 22.0277 19.6201 22.0196C19.6201 22.0114 19.6201 22.0033 19.6201 21.9952C19.6201 21.9872 19.6201 21.9791 19.6201 21.971C19.6201 21.9629 19.6201 21.9548 19.6201 21.9468C19.6201 21.9387 19.6201 21.9308 19.6201 21.9227C19.6201 21.9147 19.6201 21.9067 19.6201 21.8988C19.6201 21.8908 19.6201 21.8828 19.6201 21.875C19.6201 21.867 19.6201 21.8591 19.6201 21.8512C19.6201 21.8433 19.6201 21.8355 19.6201 21.8276C19.6201 21.8197 19.6201 21.8119 19.6201 21.8042C19.6201 21.7963 19.6201 21.7884 19.6201 21.7807C19.6201 21.773 19.6201 21.7652 19.6201 21.7575C19.6201 21.7498 19.6201 21.742 19.6201 21.7343C19.6201 21.7265 19.6201 21.7189 19.6201 21.7112C19.6201 21.7036 19.6201 21.6959 19.6201 21.6883C19.6201 21.6806 19.6201 21.673 19.6201 21.6655C19.6201 21.6578 19.6201 21.6502 19.6201 21.6427C19.6201 21.6351 19.6201 21.6276 19.6201 21.6201C19.6201 21.6126 19.6201 21.6051 19.6201 21.5976C19.6201 21.5901 19.6201 21.5826 19.6201 21.5752C19.6201 21.5677 19.6201 21.5603 19.6201 21.5529C19.6201 21.5454 19.6201 21.538 19.6201 21.5307C19.6201 21.5233 19.6201 21.516 19.6201 21.5086C19.6201 21.5012 19.6201 21.494 19.6201 21.4867C19.6201 21.4793 19.6201 21.472 19.6201 21.4648C19.6201 21.4575 19.6201 21.4502 19.6201 21.4431C19.6201 21.4358 19.6201 21.4285 19.6201 21.4214C19.6201 21.4142 19.6201 21.407 19.6201 21.3998C19.6201 21.3927 19.6201 21.3855 19.6201 21.3784C19.6201 21.3712 19.6201 21.3642 19.6201 21.357C19.6201 21.35 19.6201 21.3428 19.6201 21.3358C19.6201 21.3288 19.6201 21.3217 19.6201 21.3147C19.6201 21.3077 19.6201 21.3006 19.6201 21.2937C19.6201 21.2867 19.6201 21.2798 19.6201 21.2727C19.6201 21.2658 19.6201 21.2589 19.6201 21.252C19.6201 21.2451 19.6201 21.2382 19.6201 21.2312C19.6201 21.2244 19.6201 21.2175 19.6201 21.2107C19.6201 21.2038 19.6201 21.197 19.6201 21.1902C19.6201 21.1834 19.6201 21.1766 19.6201 21.1698C19.6201 21.163 19.6201 21.1562 19.6201 21.1495C19.6201 21.1427 19.6201 21.136 19.6201 21.1294C19.6201 21.1227 19.6201 21.1159 19.6201 21.1092C19.6201 21.1026 19.6201 21.096 19.6201 21.0893C19.6201 21.0826 19.6201 21.076 19.6201 21.0695C19.6201 21.0628 19.6201 21.0562 19.6201 21.0496C19.6201 21.0431 19.6201 21.0365 19.6201 21.03C19.6201 21.0234 19.6201 21.0169 19.6201 21.0104C19.6201 21.0039 19.6201 20.9974 19.6201 20.9909C19.6201 20.9845 19.6201 20.978 19.6201 20.9716C19.6201 20.9651 19.6201 20.9587 19.6201 20.9522C19.6201 20.9459 19.6201 20.9394 19.6201 20.9331C19.6201 20.9268 19.6201 20.9203 19.6201 20.914C19.6201 20.9077 19.6201 20.9013 19.6201 20.895C19.6201 20.8888 19.6201 20.8825 19.6201 20.8761C19.6201 20.8699 19.6201 20.8637 19.6201 20.8574C19.6201 20.8512 19.6201 20.845 19.6201 20.8387C19.6201 20.8325 19.6201 20.8263 19.6201 20.8202C19.6201 20.814 19.6201 20.8078 19.6201 20.8017C19.6201 20.7956 19.6201 20.7894 19.6201 20.7833C19.6201 20.7772 19.6201 20.7711 19.6201 20.765C19.6201 20.759 19.6201 20.7529 19.6201 20.7468C19.6201 20.7409 19.6201 20.7348 19.6201 20.7288C19.6201 20.7228 19.6201 20.7168 19.6201 20.7108C19.6201 20.7049 19.6201 20.6989 19.6201 20.6929C19.6201 20.6869 19.6201 20.6811 19.6201 20.6751C19.6201 20.6692 19.6201 20.6634 19.6201 20.6574C19.6201 20.6515 19.6201 20.6457 19.6201 20.6398C19.6201 20.6339 19.6201 20.6282 19.6201 20.6223C19.6201 20.6165 19.6201 20.6107 19.6201 20.605C19.6201 20.5991 19.6201 20.5934 19.6201 20.5876C19.6201 20.5819 19.6201 20.5761 19.6201 20.5704C19.6201 20.5647 19.6201 20.559 19.6201 20.5533C19.6201 20.5475 19.6201 20.5419 19.6201 20.5363C19.6201 20.5305 19.6201 20.5249 19.6201 20.5193C19.6201 20.5137 19.6201 20.508 19.6201 20.5025C19.6201 20.4969 19.6201 20.4913 19.6201 20.4858C19.6201 20.4801 19.6201 20.4746 19.6201 20.4691C19.6201 20.4636 19.6201 20.458 19.6201 20.4526C19.6201 20.4471 19.6201 20.4416 19.6201 20.4361C19.6201 20.4305 19.6201 20.4252 19.6201 20.4196C19.6201 20.4142 19.6201 20.4089 19.6201 20.4035C19.6201 20.398 19.6201 20.3926 19.6201 20.3872C19.6201 20.3819 19.6201 20.3765 19.6201 20.3711C19.6201 20.3658 19.6201 20.3604 19.6201 20.3552C19.6201 20.3498 19.6201 20.3445 19.6201 20.3392C19.6201 20.3339 19.6201 20.3287 19.6201 20.3234C19.6201 20.3181 19.6201 20.3128 19.6201 20.3077C19.6201 20.3024 19.6201 20.2973 19.6201 20.292C19.6201 20.2868 19.6201 20.2817 19.6201 20.2765C19.6201 20.2713 19.6201 20.2662 19.6201 20.261C19.6201 20.2559 19.6201 20.2507 19.6201 20.2457C19.6201 20.2405 19.6201 20.2355 19.6201 20.2303C19.6201 20.2253 19.6201 20.2202 19.6201 20.2152C19.6201 20.2101 19.6201 20.2051 19.6201 20.2001C19.6201 20.195 19.6201 20.1901 19.6201 20.1851C19.6201 20.18 19.6201 20.1751 19.6201 20.1702C19.6201 20.1651 19.6201 20.1602 19.6201 20.1553C19.6201 20.1504 19.6201 20.1454 19.6201 20.1405C19.6201 20.1357 19.6201 20.1308 19.6201 20.1259C19.6201 20.121 19.6201 20.1161 19.6201 20.1113C19.6201 20.1065 19.6201 20.1017 19.6201 20.0968C19.6201 20.092 19.6201 20.0872 19.6201 20.0825C19.6201 20.0777 19.6201 20.0729 19.6201 20.0682C19.6201 20.0634 19.6201 20.0587 19.6201 20.0539C19.6201 20.0492 19.6201 20.0445 19.6201 20.0398C19.6201 20.0351 19.6201 20.0304 19.6201 20.0257C19.6201 20.0211 19.6201 20.0164 19.6201 20.0118C19.6201 20.0071 19.6201 20.0025 19.6201 19.9978C19.6201 19.9933 19.6201 19.9887 19.6201 19.9841C19.6201 19.9794 19.6201 19.9749 19.6201 19.9704C19.6201 19.9658 19.6201 19.9613 19.6201 19.9567C19.6201 19.9522 19.6201 19.9477 19.6201 19.9432C19.6201 19.9386 19.6201 19.9342 19.6201 19.9297C19.6201 19.9253 19.6201 19.9208 19.6201 19.9164C19.6201 19.9119 19.6201 19.9075 19.6201 19.9031C19.6201 19.8987 19.6201 19.8942 19.6201 19.8899C19.6201 19.8854 19.6201 19.8811 19.6201 19.8767C19.6201 19.8724 19.6201 19.8681 19.6201 19.8637C19.6201 19.8594 19.6201 19.8551 19.6201 19.8507C19.6201 19.8464 19.6201 19.8422 19.6201 19.8378C19.6201 19.8336 19.6201 19.8293 19.6201 19.825C19.6201 19.8208 19.6201 19.8166 19.6201 19.8124C19.6201 19.8082 19.6201 19.8039 19.6201 19.7997C19.6201 19.7955 19.6201 19.7914 19.6201 19.7872C19.6201 19.783 19.6201 19.7788 19.6201 19.7747C19.6201 19.7705 19.6201 19.7664 19.6201 19.7623C19.6201 19.7582 19.6201 19.7541 19.6201 19.75C19.6201 19.7459 19.6201 19.7418 19.6201 19.7378C19.6201 19.7337 19.6201 19.7296 19.6201 19.7256C19.6201 19.7216 19.6201 19.7175 19.6201 19.7135C19.6201 19.7096 19.6201 19.7056 19.6201 19.7016C19.6201 19.6976 19.6201 19.6936 19.6201 19.6896C19.6201 19.6856 19.6201 19.6818 19.6201 19.6778C19.6201 19.6739 19.6201 19.6699 19.6201 19.6661C19.6201 19.6622 19.6201 19.6583 19.6201 19.6543C19.6201 19.6505 19.6201 19.6466 19.6201 19.6429C19.6201 19.639 19.6201 19.6351 19.6201 19.6313C19.6201 19.6275 19.6201 19.6236 19.6201 19.6199C19.6201 19.616 19.6201 19.6123 19.6201 19.6085C19.6201 19.6048 19.6201 19.6009 19.6201 19.5973C19.6201 19.5935 19.6201 19.5898 19.6201 19.586C19.6201 19.5822 19.6201 19.5785 19.6201 19.5749C19.6201 19.5711 19.6201 19.5675 19.6201 19.5638C19.6201 19.5601 19.6201 19.5565 19.6201 19.5528C19.6201 19.5492 19.6201 19.5456 19.6201 19.5419C19.6201 19.5383 19.6201 19.5347 19.6201 19.5311C19.6201 19.5275 19.6201 19.5239 19.6201 19.5204C19.6201 19.5167 19.6201 19.5132 19.6201 19.5097C19.6201 19.506 19.6201 19.5025 19.6201 19.499C19.6201 19.4955 19.6201 19.492 19.6201 19.4885C19.6201 19.4851 19.6201 19.4815 19.6201 19.478C19.6201 19.4746 19.6201 19.4711 19.6201 19.4677C19.6201 19.4642 19.6201 19.4608 19.6201 19.4574C19.6201 19.454 19.6201 19.4505 19.6201 19.4471C19.6201 19.4437 19.6201 19.4404 19.6201 19.437C19.6201 19.4336 19.6201 19.4302 19.6201 19.4269C19.6201 19.4235 19.6201 19.4202 19.6201 19.4168C19.6201 19.4136 19.6201 19.4103 19.6201 19.4069C19.6201 19.4036 19.6201 19.4003 19.6201 19.397C19.6201 19.3937 19.6201 19.3905 19.6201 19.3873C19.6201 19.384 19.6201 19.3807 19.6201 19.3776C19.6201 19.3743 19.6201 19.3711 19.6201 19.3678C19.6201 19.3647 19.6201 19.3615 19.6201 19.3582C19.6201 19.3551 19.6201 19.3519 19.6201 19.3487C19.6201 19.3456 19.6201 19.3425 19.6201 19.3393C19.6201 19.3362 19.6201 19.333 19.6201 19.33C19.6201 19.3268 19.6201 19.3238 19.6201 19.3206C19.6201 19.3175 19.6201 19.3145 19.6201 19.3114C19.6201 19.3083 19.6201 19.3052 19.6201 19.3022C19.6201 19.2991 19.6201 19.2962 19.6201 19.2932C19.6201 19.2901 19.6201 19.2871 19.6201 19.2841C19.6201 19.2811 19.6201 19.2781 19.6201 19.2751C19.6201 19.2722 19.6201 19.2692 19.6201 19.2663C19.6201 19.2633 19.6201 19.2603 19.6201 19.2574C19.6201 19.2545 19.6201 19.2515 19.6201 19.2487C19.6201 19.2458 19.6201 19.2429 19.6201 19.24C19.6201 19.2371 19.6201 19.2342 19.6201 19.2314C19.6201 19.2286 19.6201 19.2256 19.6201 19.2228C19.6201 19.22 19.6201 19.2172 19.6201 19.2144C19.6201 19.2116 19.6201 19.2087 19.6201 19.2059C19.6201 19.2031 19.6201 19.2003 19.6201 19.1976C19.6201 19.1948 19.6201 19.192 19.6201 19.1893C19.6201 19.1865 19.6201 19.1838 19.6201 19.1811C19.6201 19.1783 19.6201 19.1756 19.6201 19.1729C19.6201 19.1702 19.6201 19.1675 19.6201 19.1648C19.6201 19.1621 19.6201 19.1594 19.6201 19.1568C19.6201 19.1541 19.6201 19.1514 19.6201 19.1488C19.6201 19.1461 19.6201 19.1436 19.6201 19.1409C19.6201 19.1383 19.6201 19.1357 19.6201 19.1331C19.6201 19.1304 19.6201 19.1279 19.6201 19.1253C19.6201 19.1227 19.6201 19.1201 19.6201 19.1177C19.6201 19.1151 19.6201 19.1125 19.6201 19.1099C19.6201 19.1075 19.6201 19.1049 19.6201 19.1024C19.6201 19.0998 19.6201 19.0974 19.6201 19.0949C19.6201 19.0923 19.6201 19.0899 19.6201 19.0874C19.6201 19.085 19.6201 19.0825 19.6201 19.08C19.6201 19.0776 19.6201 19.0751 19.6201 19.0728C19.6201 19.0703 19.6201 19.0678 19.6201 19.0655C19.6201 19.063 19.6201 19.0607 19.6201 19.0582C19.6201 19.0559 19.6201 19.0534 19.6201 19.0511C19.6201 19.0487 19.6201 19.0464 19.6201 19.044C19.6201 19.0417 19.6201 19.0393 19.6201 19.037C19.6201 19.0347 19.6201 19.0323 19.6201 19.0301C19.6201 19.0277 19.6201 19.0254 19.6201 19.0232C19.6201 19.0208 19.6201 19.0186 19.6201 19.0163C19.6201 19.014 19.6201 19.0118 19.6201 19.0096C19.6201 19.0072 19.6201 19.005 19.6201 19.0028C19.6201 19.0005 19.6201 18.9983 19.6201 18.9961C19.6201 18.9939 19.6201 18.9918 19.6201 18.9895C19.6201 18.9873 19.6201 18.9852 19.6201 18.983C19.6201 18.9808 19.6201 18.9786 19.6201 18.9765C19.6201 18.9743 19.6201 18.9722 19.6201 18.9701C19.6201 18.968 19.6201 18.9658 19.6201 18.9637C19.6201 18.9616 19.6201 18.9595 19.6201 18.9574C19.6201 18.9553 19.6201 18.9532 19.6201 18.9511C19.6201 18.9491 19.6201 18.947 19.6201 18.945C19.6201 18.9429 19.6201 18.9409 19.6201 18.9388C19.6201 18.9368 19.6201 18.9348 19.6201 18.9327C19.6201 18.9307 19.6201 18.9287 19.6201 18.9267C19.6201 18.9247 19.6201 18.9227 19.6201 18.9207C19.6201 18.9187 19.6201 18.9167 19.6201 18.9148C19.6201 18.9129 19.6201 18.9109 19.6201 18.909C19.6201 18.907 19.6201 18.905 19.6201 18.9031C19.6201 18.9012 19.6201 18.8993 19.6201 18.8974C19.6201 18.8955 19.6201 18.8935 19.6201 18.8916C19.6201 18.8898 19.6201 18.8879 19.6201 18.886C19.6201 18.8841 19.6201 18.8823 19.6201 18.8805C19.6201 18.8786 19.6201 18.8767 19.6201 18.8749C19.6201 18.8731 19.6201 18.8712 19.6201 18.8695C19.6201 18.8676 19.6201 18.8658 19.6201 18.864C19.6201 18.8622 19.6201 18.8605 19.6201 18.8587C19.6201 18.8568 19.6201 18.8551 19.6201 18.8533C19.6201 18.8515 19.6201 18.8498 19.6201 18.848C19.6201 18.8463 19.6201 18.8446 19.6201 18.8429C19.6201 18.8411 19.6201 18.8393 19.6201 18.8377C19.6201 18.8359 19.6201 18.8343 19.6201 18.8325C19.6201 18.8309 19.6201 18.8292 19.6201 18.8275C19.6201 18.8259 19.6201 18.8241 19.6201 18.8225C19.6201 18.8208 19.6201 18.8192 19.6201 18.8175C19.6201 18.8159 19.6201 18.8143 19.6201 18.8126C19.6201 18.811 19.6201 18.8093 19.6201 18.8078C19.6201 18.8062 19.6201 18.8045 19.6201 18.803C19.6201 18.8014 19.6201 18.7998 19.6201 18.7982C19.6201 18.7967 19.6201 18.795 19.6201 18.7935C19.6201 18.792 19.6201 18.7903 19.6201 18.7888C19.6201 18.7873 19.6201 18.7858 19.6201 18.7842C19.6201 18.7827 19.6201 18.7812 19.6201 18.7797C19.6201 18.7782 19.6201 18.7766 19.6201 18.7752C19.6201 18.7737 19.6201 18.7722 19.6201 18.7708C19.6201 18.7692 19.6201 18.7678 19.6201 18.7663C19.6201 18.7649 19.6201 18.7634 19.6201 18.762C19.6201 18.7605 19.6201 18.759 19.6201 18.7576C19.6201 18.7562 19.6201 18.7548 19.6201 18.7534C19.6201 18.752 19.6201 18.7506 19.6201 18.7492C19.6201 18.7478 19.6201 18.7464 19.6201 18.745C19.6201 18.7436 19.6201 18.7422 19.6201 18.7409C19.6201 18.7395 19.6201 18.7381 19.6201 18.7368C19.6201 18.7354 19.6201 18.7341 19.6201 18.7328C19.6201 18.7314 19.6201 18.7301 19.6201 18.7287C19.6201 18.7274 19.6201 18.7261 19.6201 18.7248C19.6201 18.7235 19.6201 18.7222 19.6201 18.7209C19.6201 18.7197 19.6201 18.7184 19.6201 18.7171C19.6201 18.7158 19.6201 18.7145 19.6201 18.7132C19.6201 18.7119 19.6201 18.7107 19.6201 18.7095C19.6201 18.7082 19.6201 18.707 19.6201 18.7057C19.6201 18.7045 19.6201 18.7032 19.6201 18.7021C19.6201 18.7009 19.6201 18.6996 19.6201 18.6984C19.6201 18.6973 19.6201 18.6961 19.6201 18.6948C19.6201 18.6936 19.6201 18.6925 19.6201 18.6913C19.6201 18.6901 19.6201 18.6889 19.6201 18.6878C19.6201 18.6866 19.6201 18.6855 19.6201 18.6844C19.6201 18.6832 19.6201 18.682 19.6201 18.681C19.6201 18.6798 19.6201 18.6786 19.6201 18.6776C19.6201 18.6764 19.6201 18.6753 19.6201 18.6742C19.6201 18.6731 19.6201 18.6721 19.6201 18.6709C19.6201 18.6698 19.6201 18.6688 19.6201 18.6677C19.6201 18.6665 19.6201 18.6655 19.6201 18.6644C19.6201 18.6634 19.6201 18.6623 19.6201 18.6613C19.6201 18.6602 19.6201 18.6592 19.6201 18.6582C19.6201 18.6572 19.6201 18.6561 19.6201 18.6551C19.6201 18.6541 19.6201 18.6531 19.6201 18.652C19.6201 18.6511 19.6201 18.65 19.6201 18.6491C19.6201 18.648 19.6201 18.6471 19.6201 18.646C19.6201 18.6451 19.6201 18.6442 19.6201 18.6431C19.6201 18.6422 19.6201 18.6412 19.6201 18.6403C19.6201 18.6393 19.6201 18.6383 19.6201 18.6374C19.6201 18.6364 19.6201 18.6355 19.6201 18.6345C19.6201 18.6336 19.6201 18.6328 19.6201 18.6318C19.6201 18.6309 19.6201 18.63 19.6201 18.629C19.6201 18.6282 19.6201 18.6273 19.6201 18.6263C19.6201 18.6255 19.6201 18.6246 19.6201 18.6238C19.6201 18.6228 19.6201 18.622 19.6201 18.6211C19.6201 18.6202 19.6201 18.6194 19.6201 18.6185C19.6201 18.6177 19.6201 18.6168 19.6201 18.6159C19.6201 18.6151 19.6201 18.6143 19.6201 18.6134C19.6201 18.6126 19.6201 18.6118 19.6201 18.611C19.6201 18.6102 19.6201 18.6093 19.6201 18.6085C19.6201 18.6077 19.6201 18.6069 19.6201 18.6062C19.6201 18.6054 19.6201 18.6045 19.6201 18.6037C19.6201 18.603 19.6201 18.6022 19.6201 18.6014C19.6201 18.6007 19.6201 18.5998 19.6201 18.5991C19.6201 18.5983 19.6201 18.5976 19.6201 18.5968C19.6201 18.5961 19.6201 18.5954 19.6201 18.5946C19.6201 18.5939 19.6201 18.5932 19.6201 18.5925C19.6201 18.5918 19.6201 18.5909 19.6201 18.5902C19.6201 18.5895 19.6201 18.5888 19.6201 18.5881C19.6201 18.5874 19.6201 18.5867 19.6201 18.586C19.6201 18.5853 19.6201 18.5846 19.6201 18.584C19.6201 18.5833 19.6201 18.5826 19.6201 18.5819C19.6201 18.5813 19.6201 18.5806 19.6201 18.5799C19.6201 18.5793 19.6201 18.5786 19.6201 18.5779C19.6201 18.5773 19.6201 18.5766 19.6201 18.576C19.6201 18.5755 19.6201 18.5748 19.6201 18.5742C19.6201 18.5735 19.6201 18.5729 19.6201 18.5723C19.6201 18.5716 19.6201 18.571 19.6201 18.5704C19.6201 18.5698 19.6201 18.5692 19.6201 18.5687C19.6201 18.5681 19.6201 18.5674 19.6201 18.5668C19.6201 18.5662 19.6201 18.5656 19.6201 18.5651C19.6201 18.5646 19.6201 18.564 19.6201 18.5634C19.6201 18.5628 19.6201 18.5622 19.6201 18.5617C19.6201 18.5612 19.6201 18.5606 19.6201 18.56C19.6201 18.5595 19.6201 18.5589 19.6201 18.5583C19.6201 18.5579 19.6201 18.5588 19.6201 18.5583C19.6201 18.5578 19.6201 18.5558 19.6201 18.5552C19.6201 18.5547 19.6201 18.5558 19.6201 18.5552C19.6201 18.5547 19.6201 18.5527 19.6201 18.5521C19.6201 18.5517 19.6201 18.5526 19.6201 18.5521C19.6201 18.5517 19.6201 18.5497 19.6201 18.5492C19.6201 18.5487 19.6201 18.5497 19.6201 18.5492C19.6201 18.5487 19.6201 18.5469 19.6201 18.5464C19.6201 18.5459 19.6201 18.5469 19.6201 18.5464C19.6201 18.5459 19.6201 18.5442 19.6201 18.5437C19.6201 18.5432 19.6201 18.544 19.6201 18.5437C19.6201 18.5432 19.6201 18.5415 19.6201 18.541C19.6201 18.5406 19.6201 18.5413 19.6201 18.541C19.6201 18.5405 19.6201 18.539 19.6201 18.5385C19.6201 18.5381 19.6201 18.5389 19.6201 18.5385C19.6201 18.5381 19.6201 18.5365 19.6201 18.5361C19.6201 18.5356 19.6201 18.533 19.6201 18.5327C19.6201 18.5323 19.6201 18.533 19.6201 18.5327C19.6201 18.5323 19.6201 18.5309 19.6201 18.5306C19.6201 18.5302 19.6201 18.5309 19.6201 18.5306C19.6201 18.5302 19.6201 18.5288 19.6201 18.5284C19.6201 18.5281 19.6201 18.5288 19.6201 18.5284C19.6201 18.5281 19.6201 18.5268 19.6201 18.5265C19.6201 18.5261 19.6201 18.5267 19.6201 18.5265C19.6201 18.5261 19.6201 18.5248 19.6201 18.5246C19.6201 18.5242 19.6201 18.5249 19.6201 18.5246C19.6201 18.5242 19.6201 18.5231 19.6201 18.5227C19.6201 18.5225 19.6201 18.5229 19.6201 18.5227C19.6201 18.5225 19.6201 18.5213 19.6201 18.5211C19.6201 18.5207 19.6201 18.5213 19.6201 18.5211C19.6201 18.5207 19.6201 18.5197 19.6201 18.5194C19.6201 18.5192 19.6201 18.5197 19.6201 18.5194C19.6201 18.5192 19.6201 18.5166 19.6201 18.5164C19.6201 18.5161 19.6201 18.5166 19.6201 18.5164C19.6201 18.5161 19.6201 18.5139 19.6201 18.5137C19.6201 18.5134 19.6201 18.5109 19.6201 18.5106C19.6201 18.5105 19.6201 18.5107 19.6201 18.5106C19.6201 18.5105 19.6201 18.5078 19.6201 18.5077C19.6201 18.5075 19.6201 18.5078 19.6201 18.5077C19.6201 18.5076 19.6201 18.5054 19.6201 18.5051C19.6201 18.505 19.6201 18.5028 19.6201 18.5027C19.6201 18.5025 19.6201 18.5028 19.6201 18.5027C19.6201 18.5027 19.6201 18.4988 19.6201 18.4987H17.8616ZM19.6201 18.4987V12.6371H17.8616V18.4987H19.6201Z" fill="#005DAA"/>
</g>
</svg>
